<svg width="32" height="33" viewBox="0 0 32 33" fill="none" xmlns="http://www.w3.org/2000/svg">
<circle cx="16" cy="16.5524" r="16" fill="#007DFC"/>
<path d="M17.4527 18.3625V8.78506C17.3499 5.81349 13.0637 5.80279 12.9574 8.78506V18.3625C8.90202 20.6884 10.5242 26.8786 15.2032 26.9205C16.5599 26.9187 17.8457 26.3159 18.7139 25.273C19.5823 24.2309 19.9432 22.857 19.6996 21.5232C19.4559 20.1884 18.633 19.031 17.4528 18.3627L17.4527 18.3625ZM15.2031 25.4902C13.7483 25.4856 12.4853 24.4836 12.1517 23.067C11.8171 21.6513 12.4982 20.1902 13.7984 19.5354C14.1612 19.3544 14.3903 18.9826 14.3885 18.577V8.78525C14.3876 8.56884 14.474 8.35972 14.6267 8.20695C14.7804 8.05328 14.9886 7.96691 15.205 7.96691C15.4223 7.96691 15.6306 8.05329 15.7842 8.20695C15.937 8.3597 16.0234 8.56884 16.0225 8.78525V18.577C16.0206 18.9817 16.248 19.3526 16.6089 19.5354C17.911 20.1882 18.5938 21.6503 18.2592 23.0679C17.9246 24.4855 16.6598 25.4883 15.2031 25.4902Z" fill="white"/>
<path d="M15.2032 20.201C14.023 20.2047 13.0682 21.163 13.0682 22.3433C13.1701 25.1803 17.2418 25.1756 17.3417 22.3433C17.3417 21.1612 16.3852 20.2029 15.2032 20.201Z" fill="white"/>
<path d="M8.77003 10.6086H11.7416C11.9371 10.6058 12.0935 10.4467 12.0935 10.2512C12.0935 10.0548 11.9371 9.89569 11.7416 9.89294H8.77003C8.57453 9.89567 8.41724 10.0548 8.41724 10.2512C8.41724 10.4467 8.57454 10.6058 8.77003 10.6086Z" fill="white"/>
<path d="M12.099 12.5713C12.099 12.4768 12.0608 12.3849 11.9944 12.3186C11.9271 12.2513 11.8362 12.2131 11.7416 12.214H8.35642C8.15911 12.214 8 12.374 8 12.5714C8 12.7687 8.15912 12.9278 8.35642 12.9287H11.7416C11.8362 12.9287 11.9271 12.8914 11.9944 12.8241C12.0608 12.7569 12.099 12.6659 12.099 12.5713Z" fill="white"/>
<path d="M9.41932 14.5345C9.22383 14.5373 9.06653 14.6964 9.06653 14.8919C9.06653 15.0874 9.22383 15.2465 9.41932 15.2492H11.7416C11.9371 15.2465 12.0935 15.0874 12.0935 14.8919C12.0935 14.6964 11.9371 14.5373 11.7416 14.5345H9.41932Z" fill="white"/>
<path d="M12.0989 17.2125C12.0989 17.1179 12.0607 17.027 11.9944 16.9597C11.9271 16.8924 11.8362 16.8551 11.7416 16.8551H8.77004C8.67456 16.8542 8.58364 16.8924 8.51636 16.9588C8.44908 17.0261 8.41089 17.117 8.41089 17.2124C8.41089 17.3079 8.44908 17.3988 8.51636 17.4661C8.58365 17.5325 8.67457 17.5707 8.77004 17.5698H11.7416C11.8362 17.5698 11.9271 17.5325 11.9944 17.4652C12.0607 17.3979 12.0989 17.307 12.0989 17.2125Z" fill="white"/>
<path d="M18.9156 8.53974C19.1111 8.57065 19.2939 8.4379 19.3248 8.24242L19.4685 7.33317C19.4994 7.13858 19.3657 6.95491 19.1711 6.924C18.9756 6.89309 18.7929 7.02675 18.762 7.22132L18.6183 8.13057C18.6038 8.22514 18.6265 8.32061 18.682 8.39698C18.7383 8.47427 18.822 8.52519 18.9156 8.53974Z" fill="white"/>
<path d="M20.6397 16.5522C20.5488 16.3794 20.336 16.3112 20.1614 16.4004C19.9869 16.4886 19.9168 16.7004 20.0023 16.8759L20.4197 17.6961C20.4624 17.7815 20.537 17.8461 20.6279 17.8761C20.7179 17.9061 20.817 17.8988 20.9016 17.8552C20.9871 17.8125 21.0507 17.737 21.0798 17.6461C21.1089 17.5551 21.1007 17.4569 21.0571 17.3724L20.6397 16.5522Z" fill="white"/>
<path d="M23.282 14.8308L22.4627 14.4126C22.2872 14.3262 22.0754 14.3962 21.9863 14.5708C21.8981 14.7444 21.9653 14.9581 22.1381 15.0491C22.4509 15.23 22.7791 15.3828 23.1192 15.5064C23.2829 15.5037 23.4247 15.3909 23.4629 15.2318C23.5011 15.0727 23.4265 14.9072 23.282 14.8308Z" fill="white"/>
<path d="M23.5892 11.4631L22.6818 11.6068V11.6077C22.489 11.6413 22.359 11.8232 22.3899 12.016C22.4208 12.2087 22.6009 12.3415 22.7936 12.3133L23.7011 12.1696H23.702C23.8947 12.1369 24.0257 11.955 23.9957 11.7614C23.9648 11.5677 23.7838 11.4349 23.5892 11.4631Z" fill="white"/>
<path d="M22.3692 8.5571C22.3019 8.48981 22.211 8.45162 22.1155 8.45253C22.0209 8.45253 21.93 8.48981 21.8627 8.5571L21.2135 9.20814C21.1462 9.27542 21.108 9.36635 21.108 9.46181C21.108 9.55637 21.1462 9.64821 21.2135 9.71458C21.2808 9.78186 21.3717 9.82005 21.4672 9.81914C21.5617 9.81914 21.6527 9.78095 21.7199 9.71367L22.3692 9.06263C22.5092 8.9226 22.5083 8.69622 22.3692 8.5571Z" fill="white"/>
<path d="M18.2645 9.36804C18.2326 9.36804 18.1999 9.36895 18.1681 9.37168V15.9666C19.0501 15.9911 19.9057 15.6611 20.5421 15.05C21.1795 14.439 21.5451 13.5988 21.5578 12.716C21.5705 11.834 21.2295 10.983 20.6112 10.3539C19.992 9.72556 19.1474 9.36986 18.2645 9.36804Z" fill="white"/>
</svg>
