<svg width="34" height="24" viewBox="0 0 34 24" fill="none" xmlns="http://www.w3.org/2000/svg">
<path fill-rule="evenodd" clip-rule="evenodd" d="M0.125 2C0.125 0.964466 0.964466 0.125 2 0.125H32C33.0355 0.125 33.875 0.964466 33.875 2C33.875 3.03553 33.0355 3.875 32 3.875H2C0.964466 3.875 0.125 3.03553 0.125 2ZM0.125 12C0.125 10.9645 0.964466 10.125 2 10.125H32C33.0355 10.125 33.875 10.9645 33.875 12C33.875 13.0355 33.0355 13.875 32 13.875H2C0.964466 13.875 0.125 13.0355 0.125 12ZM0.125 22C0.125 20.9645 0.964466 20.125 2 20.125H32C33.0355 20.125 33.875 20.9645 33.875 22C33.875 23.0355 33.0355 23.875 32 23.875H2C0.964466 23.875 0.125 23.0355 0.125 22Z" fill="#007DFC"/>
</svg>
