<svg width="40" height="40" viewBox="0 0 40 40" fill="none" xmlns="http://www.w3.org/2000/svg">
<path d="M6.66669 31.6667V28.3334H10V16.6667C10 14.3612 10.6945 12.3195 12.0834 10.5417C13.4722 8.73615 15.2778 7.55559 17.5 7.00004V5.83337C17.5 5.13893 17.7361 4.5556 18.2084 4.08337C18.7084 3.58337 19.3056 3.33337 20 3.33337C20.6945 3.33337 21.2778 3.58337 21.75 4.08337C22.25 4.5556 22.5 5.13893 22.5 5.83337V7.00004C24.7222 7.55559 26.5278 8.73615 27.9167 10.5417C29.3056 12.3195 30 14.3612 30 16.6667V28.3334H33.3334V31.6667H6.66669ZM20 36.6667C19.0834 36.6667 18.2917 36.3473 17.625 35.7084C16.9861 35.0417 16.6667 34.25 16.6667 33.3334H23.3334C23.3334 34.25 23 35.0417 22.3334 35.7084C21.6945 36.3473 20.9167 36.6667 20 36.6667ZM13.3334 28.3334H26.6667V16.6667C26.6667 14.8334 26.0139 13.2639 24.7084 11.9584C23.4028 10.6528 21.8334 10 20 10C18.1667 10 16.5972 10.6528 15.2917 11.9584C13.9861 13.2639 13.3334 14.8334 13.3334 16.6667V28.3334Z" fill="#AEAFB1"/>
</svg>
