<svg width="34" height="34" viewBox="0 0 34 34" fill="none" xmlns="http://www.w3.org/2000/svg">
<path d="M6.74998 25.5C8.16665 24.4167 9.74998 23.5625 11.5 22.9375C13.25 22.3125 15.0833 22 17 22C18.9166 22 20.75 22.3125 22.5 22.9375C24.25 23.5625 25.8333 24.4167 27.25 25.5C28.2222 24.3612 28.9791 23.0695 29.5208 21.625C30.0625 20.1806 30.3333 18.6389 30.3333 17C30.3333 13.3056 29.0347 10.1598 26.4375 7.56254C23.8403 4.96532 20.6944 3.66671 17 3.66671C13.3055 3.66671 10.1597 4.96532 7.56248 7.56254C4.96526 10.1598 3.66665 13.3056 3.66665 17C3.66665 18.6389 3.93748 20.1806 4.47915 21.625C5.02081 23.0695 5.77776 24.3612 6.74998 25.5ZM17 18.6667C15.3611 18.6667 13.9791 18.1042 12.8541 16.9792C11.7291 15.8542 11.1666 14.4723 11.1666 12.8334C11.1666 11.1945 11.7291 9.81254 12.8541 8.68754C13.9791 7.56254 15.3611 7.00004 17 7.00004C18.6389 7.00004 20.0208 7.56254 21.1458 8.68754C22.2708 9.81254 22.8333 11.1945 22.8333 12.8334C22.8333 14.4723 22.2708 15.8542 21.1458 16.9792C20.0208 18.1042 18.6389 18.6667 17 18.6667ZM17 33.6667C14.6944 33.6667 12.5278 33.2292 10.5 32.3542C8.4722 31.4792 6.70831 30.2917 5.20831 28.7917C3.70831 27.2917 2.52081 25.5278 1.64581 23.5C0.770813 21.4723 0.333313 19.3056 0.333313 17C0.333313 14.6945 0.770813 12.5278 1.64581 10.5C2.52081 8.47226 3.70831 6.70837 5.20831 5.20837C6.70831 3.70837 8.4722 2.52087 10.5 1.64587C12.5278 0.770874 14.6944 0.333374 17 0.333374C19.3055 0.333374 21.4722 0.770874 23.5 1.64587C25.5278 2.52087 27.2916 3.70837 28.7916 5.20837C30.2916 6.70837 31.4791 8.47226 32.3541 10.5C33.2291 12.5278 33.6666 14.6945 33.6666 17C33.6666 19.3056 33.2291 21.4723 32.3541 23.5C31.4791 25.5278 30.2916 27.2917 28.7916 28.7917C27.2916 30.2917 25.5278 31.4792 23.5 32.3542C21.4722 33.2292 19.3055 33.6667 17 33.6667Z" fill="#007DFC"/>
</svg>
