<svg width="24" height="31" viewBox="0 0 24 31" fill="none" xmlns="http://www.w3.org/2000/svg">
<path d="M14.1791 17.7152V3.34904C14.025 -1.10831 7.59574 -1.12437 7.43618 3.34904V17.7152C1.35314 21.204 3.78643 30.4895 10.805 30.5523C12.8399 30.5496 14.7686 29.6453 16.071 28.0809C17.3735 26.5179 17.915 24.457 17.5495 22.4563C17.1839 20.4541 15.9496 18.7179 14.1793 17.7155L14.1791 17.7152ZM10.8048 28.4067C8.62258 28.3999 6.72805 26.8969 6.22771 24.772C5.72579 22.6484 6.74736 20.4568 8.69772 19.4746C9.24192 19.2032 9.58563 18.6453 9.58291 18.037V3.34932C9.58154 3.02471 9.71112 2.71103 9.94024 2.48187C10.1707 2.25137 10.4831 2.12182 10.8077 2.12182C11.1337 2.12182 11.446 2.25139 11.6765 2.48187C11.9056 2.71101 12.0352 3.02471 12.0338 3.34932V18.037C12.0311 18.644 12.3721 19.2004 12.9135 19.4746C14.8667 20.4539 15.8909 22.647 15.389 24.7734C14.8871 26.8997 12.9898 28.4039 10.8048 28.4067Z" fill="#007DFC"/>
<path d="M10.8049 20.4731C9.03453 20.4786 7.60242 21.9161 7.60242 23.6865C7.75517 27.942 13.8628 27.935 14.0126 23.6865C14.0126 21.9134 12.5779 20.4759 10.8049 20.4731Z" fill="#007DFC"/>
<path d="M1.15516 6.08404H5.61252C5.90575 6.07995 6.14034 5.84126 6.14034 5.54801C6.14034 5.25341 5.90575 5.01474 5.61252 5.01062H1.15516C0.861924 5.01471 0.625977 5.25339 0.625977 5.54801C0.625977 5.84125 0.861931 6.07992 1.15516 6.08404Z" fill="#007DFC"/>
<path d="M6.14844 9.02846C6.14844 8.88661 6.09116 8.74886 5.99159 8.6493C5.89066 8.54838 5.75427 8.49109 5.61244 8.49246H0.534631C0.238663 8.49246 0 8.7325 0 9.02848C0 9.32445 0.238681 9.56312 0.534631 9.56451H5.61244C5.75429 9.56451 5.89067 9.50859 5.99159 9.40766C6.09116 9.30673 6.14844 9.17029 6.14844 9.02846Z" fill="#007DFC"/>
<path d="M2.12892 11.9733C1.83568 11.9774 1.59973 12.216 1.59973 12.5093C1.59973 12.8025 1.83569 13.0412 2.12892 13.0453H5.61233C5.90557 13.0412 6.14015 12.8025 6.14015 12.5093C6.14015 12.2161 5.90556 11.9774 5.61233 11.9733H2.12892Z" fill="#007DFC"/>
<path d="M6.14841 15.99C6.14841 15.8482 6.09113 15.7118 5.99156 15.6109C5.89063 15.5099 5.75424 15.454 5.61241 15.454H1.15506C1.01185 15.4526 0.875457 15.5099 0.774543 15.6095C0.673616 15.7104 0.616333 15.8468 0.616333 15.99C0.616333 16.1332 0.673616 16.2696 0.774543 16.3705C0.875471 16.4701 1.01186 16.5274 1.15506 16.526H5.61241C5.75426 16.526 5.89065 16.4701 5.99156 16.3691C6.09113 16.2682 6.14841 16.1318 6.14841 15.99Z" fill="#007DFC"/>
<path d="M16.3736 2.98106C16.6668 3.02743 16.9409 2.82831 16.9873 2.53508L17.2028 1.1712C17.2492 0.879324 17.0487 0.603817 16.7568 0.557449C16.4636 0.511077 16.1894 0.711571 16.1431 1.00343L15.9276 2.36731C15.9058 2.50916 15.9399 2.65237 16.0231 2.76692C16.1076 2.88285 16.2331 2.95924 16.3736 2.98106Z" fill="#007DFC"/>
<path d="M18.9598 14.9998C18.8234 14.7406 18.5042 14.6383 18.2423 14.772C17.9805 14.9043 17.8754 15.2221 18.0037 15.4853L18.6297 16.7155C18.6938 16.8438 18.8056 16.9406 18.942 16.9856C19.0771 17.0306 19.2257 17.0197 19.3526 16.9542C19.4808 16.8901 19.5763 16.7769 19.6199 16.6405C19.6635 16.5041 19.6513 16.3568 19.5858 16.23L18.9598 14.9998Z" fill="#007DFC"/>
<path d="M22.9231 12.4177L21.6942 11.7903C21.431 11.6607 21.1132 11.7657 20.9795 12.0276C20.8472 12.2881 20.9481 12.6087 21.2073 12.745C21.6765 13.0164 22.1688 13.2456 22.6789 13.4311C22.9244 13.427 23.1372 13.2578 23.1945 13.0192C23.2518 12.7805 23.1399 12.5323 22.9231 12.4177Z" fill="#007DFC"/>
<path d="M23.3839 7.36613L22.0228 7.58163V7.58299C21.7336 7.63346 21.5386 7.90624 21.5849 8.19538C21.6313 8.48453 21.9014 8.68364 22.1905 8.64136L23.5517 8.42586H23.553C23.8422 8.37677 24.0386 8.10398 23.9936 7.81348C23.9472 7.52297 23.6758 7.32385 23.3839 7.36613Z" fill="#007DFC"/>
<path d="M21.5537 3.00685C21.4528 2.90592 21.3164 2.84864 21.1732 2.85C21.0313 2.85 20.8949 2.90592 20.794 3.00685L19.8202 3.98341C19.7193 4.08434 19.662 4.22073 19.662 4.36392C19.662 4.50577 19.7193 4.64352 19.8202 4.74307C19.9211 4.844 20.0575 4.90128 20.2007 4.89992C20.3426 4.89992 20.4789 4.84264 20.5799 4.74171L21.5537 3.76515C21.7637 3.55511 21.7624 3.21554 21.5537 3.00685Z" fill="#007DFC"/>
<path d="M15.3969 4.22363C15.3492 4.22363 15.3001 4.225 15.2523 4.22909V14.1214C16.5753 14.1583 17.8587 13.6632 18.8134 12.7466C19.7695 11.8301 20.3178 10.5698 20.3369 9.24562C20.356 7.92262 19.8445 6.64603 18.9171 5.70236C17.9882 4.75991 16.7212 4.22636 15.3969 4.22363Z" fill="#007DFC"/>
</svg>
